<svg id="Layer_1" data-name="Layer 1" xmlns="http://www.w3.org/2000/svg" viewBox="0 0 566.93 566.93"><path d="M283.46,35.43c-137,0-248,111-248,248s111,248,248,248,248-111,248-248S420.45,35.43,283.46,35.43Zm0,455.94c-114.82,0-207.9-93.08-207.9-207.91s93.08-207.9,207.9-207.9,207.91,93.08,207.91,207.9S398.29,491.37,283.46,491.37Z"/><polygon points="379.1 214.93 349.62 185.45 282.01 253.06 214.4 185.45 184.92 214.93 252.53 282.54 184.92 350.15 214.4 379.62 282.01 312.01 349.62 379.62 379.1 350.15 311.49 282.54 379.1 214.93"/></svg>