<svg id="Layer_1" data-name="Layer 1" xmlns="http://www.w3.org/2000/svg" viewBox="0 0 566.93 566.93"><path d="M364.4,372.23c13.07-12.46,26.08-25,39.29-37.32,2.13-2,5.22-4.26,7.83-4.22,23.78.4,47.89-.95,71.24,2.6,28.46,4.32,47.22,28.13,48.11,56.95.82,26.94.83,53.95,0,80.89-1,34.49-27,60.4-62.47,60.56q-185.15.82-370.29,0c-36.65-.18-61.93-27.13-62.47-63.8q-.52-36.56,0-73.12c.5-37.43,26.13-63.3,63.69-64.3,16.59-.44,33.2-.31,49.78.08,4.35.1,9.77.89,12.78,3.55,13.9,12.27,27.12,25.31,40.58,38.08l-1.86,4.08h-84.5c-36.51,0-36.52,0-36.52,35.87,0,17.63.17,35.27,0,52.9-.16,13.87,5.4,21.16,20.26,21.14q183.58-.27,367.18,0c13.77,0,20.06-6.31,20.05-19.73,0-23.34-.1-46.68,0-70,.08-14.35-6.76-20.46-21.13-20.28-33.09.41-66.2.13-99.3.13Z"/><path d="M261.14,321.8V300.43q0-113.64,0-227.26c0-3.64-.11-7.27,0-10.9.67-16.8,8.79-27,21.67-27.45,13.28-.42,22.62,10.42,22.66,28,.21,79.38.1,158.77.11,238.15v20.24c6.66-5.88,10.52-8.94,14-12.39,25.37-25.27,50.57-50.7,76-75.88,13.66-13.52,24.68-14.73,35.14-4.52,10.07,9.83,9.3,23-3.19,35.55q-62.49,63-125.49,125.46c-13.31,13.18-24.27,13-37.76-.34q-63-62.48-125.47-125.48C126.54,251.14,126,237.65,136.36,228s21.22-8.5,34,4.12c25.49,25.15,50.67,50.6,76,75.88C250,311.6,253.78,314.94,261.14,321.8Z"/><path d="M409.48,430.48c.36-11.83,10.67-22,22.08-21.84,12.13.19,22.31,11.54,21.49,23.95-.8,11.9-11.47,21.76-22.82,21.07C418.68,453,409.11,442.27,409.48,430.48Z"/></svg>